<svg width="99" height="99" viewBox="0 0 99 99" fill="none" xmlns="http://www.w3.org/2000/svg">
<path d="M80 0C90.4934 8.37535e-07 99 8.50659 99 19V80C99 90.4934 90.4934 99 80 99H19C8.50659 99 4.02687e-08 90.4934 0 80V19C8.37589e-07 8.50659 8.50659 4.02661e-08 19 0H80ZM45 19V70.3428L26.373 51.7158C24.8109 50.1537 22.2779 50.1537 20.7158 51.7158C19.1537 53.2779 19.1537 55.811 20.7158 57.373L46.1719 82.8281C47.734 84.3902 50.266 84.3902 51.8281 82.8281L77.2842 57.373C78.8463 55.811 78.8463 53.2779 77.2842 51.7158C75.7221 50.1537 73.189 50.1537 71.627 51.7158L53 70.3428V19H45Z" fill="#15FF09"/>
</svg>
