<svg width="700" height="560" viewBox="0 0 700 560" fill="none" xmlns="http://www.w3.org/2000/svg">
<path d="M630 0C649.25 1.09639e-05 665.735 6.86009 679.455 20.5801C693.175 34.3001 700.023 50.7734 700 70V490C700 509.25 693.152 525.735 679.455 539.455C665.758 553.175 649.273 560.023 630 560H70C50.7501 560 34.2767 553.152 20.5801 539.455C6.88343 525.758 0.0233459 509.273 0 490V70C0 50.75 6.86009 34.2767 20.5801 20.5801C34.3001 6.88342 50.7733 0.0233369 70 0H630ZM350 315L70 140V490H630V140L350 315ZM350 245L630 70H70L350 245Z" fill="#0CF900"/>
</svg>
