<svg width="165" height="21" viewBox="0 0 165 21" fill="none" xmlns="http://www.w3.org/2000/svg">
<path d="M0 21V0H18V3H21V12H15V15H18V18H21V21H12V18H9V15H6V21H0ZM6 12H12V9H15V3H6V12ZM27 21V18H24V3H27V0H42V3H45V18H42V21H27ZM30 18H39V3H30V18ZM48 21V0H54V3H57V6H60V3H63V0H69V21H63V9H60V15H57V9H54V21H48ZM72 21V0H90V3H93V9H90V12H93V18H90V21H72ZM78 9H87V3H78V9ZM78 18H87V12H78V18ZM99 21V18H96V0H102V18H111V0H117V18H114V21H99ZM120 21V0H138V3H141V12H135V15H138V18H141V21H132V18H129V15H126V21H120ZM126 12H132V9H135V3H126V12ZM144 21V0H150V3H153V6H156V9H159V0H165V21H159V15H156V12H153V9H150V21H144Z" fill="white"/>
</svg>
