<svg width="89" height="89" viewBox="0 0 89 89" fill="none" xmlns="http://www.w3.org/2000/svg">
<rect x="10.5" y="12.5" width="68" height="65" rx="17.5" stroke="white"/>
<path d="M20.125 43.5474C20.125 36.0049 20.875 32.2324 23.2175 29.8899C25.56 27.5474 29.3325 27.5474 36.875 27.5474H51.125C58.6675 27.5474 62.4375 27.5474 64.7825 29.8899C67.1275 32.2324 67.875 36.0049 67.875 43.5474V46.4524C67.875 53.9949 67.125 57.7674 64.7825 60.1099C62.44 62.4524 58.6675 62.4524 51.125 62.4524H36.875C29.3325 62.4524 25.56 62.4524 23.2175 60.1099C20.875 57.7674 20.125 53.9949 20.125 46.4524V43.5474Z" stroke="white" stroke-width="1.5" stroke-linecap="round" stroke-linejoin="round"/>
<path d="M50.715 43.7275L40.045 37.06C39.8179 36.9181 39.557 36.8396 39.2892 36.8325C39.0215 36.8255 38.7568 36.8903 38.5226 37.0202C38.2884 37.1501 38.0932 37.3402 37.9574 37.571C37.8215 37.8018 37.7499 38.0647 37.75 38.3325V51.67C37.7504 51.9376 37.8223 52.2002 37.9583 52.4307C38.0944 52.6611 38.2896 52.8509 38.5237 52.9805C38.7579 53.11 39.0224 53.1746 39.2899 53.1675C39.5574 53.1604 39.8181 53.0819 40.045 52.94L50.715 46.2725C50.931 46.1378 51.1091 45.9502 51.2325 45.7276C51.356 45.505 51.4208 45.2546 51.4208 45C51.4208 44.7455 51.356 44.4951 51.2325 44.2725C51.1091 44.0499 50.931 43.8623 50.715 43.7275Z" stroke="white" stroke-width="1.5" stroke-linejoin="round"/>
</svg>
